<svg width="90" height="91" viewBox="0 0 90 91" fill="none" xmlns="http://www.w3.org/2000/svg">
<g clip-path="url(#clip0)">
<circle cx="44.9999" cy="45.8867" r="44.0163" fill="#F5F5F3" stroke="#1C1C1C" stroke-width="1.96721"/>
<path d="M70.3622 71.2644C84.4233 57.2033 84.4233 34.4057 70.3622 20.3446C56.3011 6.28354 33.5036 6.28354 19.4425 20.3446" stroke="#1C1C1C" stroke-width="1.96721"/>
<path d="M67.5721 68.478C80.0922 55.9578 80.0922 35.6586 67.5721 23.1385C55.0519 10.6183 34.7528 10.6183 22.2326 23.1385" stroke="#1C1C1C" stroke-width="1.96721"/>
<path d="M64.782 65.6857C75.7612 54.7065 75.7612 36.9057 64.782 25.9265C53.8028 14.9473 36.0019 14.9473 25.0227 25.9265" stroke="#1C1C1C" stroke-width="1.96721"/>
<path d="M61.9918 62.8954C71.4301 53.4572 71.4301 38.1547 61.9918 28.7164C52.5536 19.2782 37.2511 19.2782 27.8128 28.7164" stroke="#1C1C1C" stroke-width="1.96721"/>
<path d="M22.6797 35.5281C17.3204 35.5281 12.9758 31.1835 12.9758 25.8242C12.9758 20.4649 17.3204 16.1203 22.6797 16.1203C28.039 16.1203 32.3836 20.4649 32.3836 25.8242C32.3836 31.1835 28.039 35.5281 22.6797 35.5281Z" fill="#F5F5F3" stroke="#1C1C1C" stroke-width="1.96721"/>
<path d="M53.3945 40.8398L56.8575 70.3449" stroke="#1C1C1C" stroke-width="1.96721"/>
<path d="M54.1523 48.3281L28.2494 81.8108" stroke="#1C1C1C" stroke-width="1.96721"/>
<path d="M50.0547 54.1289L7.16789 59.1224" stroke="#1C1C1C" stroke-width="1.96721"/>
<path d="M42.6055 55.1211L8.43365 29.7618" stroke="#1C1C1C" stroke-width="1.96721"/>
<path d="M36.7617 50.7871L33.2075 24.9534" stroke="#1C1C1C" stroke-width="1.96721"/>
<path d="M35.6133 43.4336L51.368 23.0285" stroke="#1C1C1C" stroke-width="1.96721"/>
<path d="M40.1016 37.4961L65.9353 33.9419" stroke="#1C1C1C" stroke-width="1.96721"/>
<path d="M47.4414 36.4824L68.1981 52.4152" stroke="#1C1C1C" stroke-width="1.96721"/>
<mask id="mask0" mask-type="alpha" maskUnits="userSpaceOnUse" x="14" y="20" width="66" height="66">
<circle cx="47.1953" cy="53.3163" r="32.629" transform="rotate(45 47.1953 53.3163)" fill="#C4C4C4"/>
</mask>
<g mask="url(#mask0)">
<path d="M61.9964 62.9014C52.5582 72.3397 52.5582 87.6422 61.9964 97.0804C71.4347 106.519 86.7372 106.519 96.1754 97.0804" stroke="#1C1C1C" stroke-width="1.96721"/>
<path d="M64.8066 65.6641C56.9075 73.5632 56.9075 86.3704 64.8066 94.2695C72.7058 102.169 85.5129 102.169 93.4121 94.2695" stroke="#1C1C1C" stroke-width="1.96721"/>
<path d="M67.5757 68.4751C61.2123 74.8385 61.2123 85.1556 67.5757 91.519C73.9391 97.8824 84.2562 97.8824 90.6196 91.519" stroke="#1C1C1C" stroke-width="1.96721"/>
<path d="M70.3704 71.2634C65.5526 76.0812 65.5526 83.8924 70.3704 88.7102C75.1882 93.528 82.9993 93.528 87.8171 88.7102" stroke="#1C1C1C" stroke-width="1.96721"/>
</g>
<circle cx="45.2024" cy="46.0535" r="40.0601" transform="rotate(90 45.2024 46.0535)" stroke="#1C1C1C" stroke-width="1.96721"/>
</g>
<defs>
<clipPath id="clip0">
<rect width="89.9999" height="89.9999" fill="white" transform="translate(0 0.886719)"/>
</clipPath>
</defs>
</svg>
