<svg width="90" height="91" viewBox="0 0 90 91" fill="none" xmlns="http://www.w3.org/2000/svg">
<g clip-path="url(#clip0)">
<circle cx="44.9999" cy="45.5117" r="44.0163" fill="#F5F5F3" stroke="#1C1C1C" stroke-width="1.96721"/>
<rect x="44.0156" y="85.3184" width="80.357" height="1.97802" transform="rotate(-90 44.0156 85.3184)" fill="#1C1C1C"/>
<rect x="33.6445" y="83.6953" width="80.357" height="1.97802" transform="rotate(-75 33.6445 83.6953)" fill="#1C1C1C"/>
<rect x="24.0547" y="79.4414" width="80.357" height="1.97802" transform="rotate(-60 24.0547 79.4414)" fill="#1C1C1C"/>
<rect x="15.8906" y="72.8535" width="80.357" height="1.97802" transform="rotate(-45 15.8906 72.8535)" fill="#1C1C1C"/>
<rect x="9.71094" y="64.373" width="80.357" height="1.97802" transform="rotate(-30 9.71094 64.373)" fill="#1C1C1C"/>
<rect x="5.93359" y="54.584" width="80.357" height="1.97802" transform="rotate(-15 5.93359 54.584)" fill="#1C1C1C"/>
<rect x="4.82031" y="44.1504" width="80.357" height="1.97802" fill="#1C1C1C"/>
<rect x="6.44531" y="33.7852" width="80.357" height="1.97802" transform="rotate(15 6.44531 33.7852)" fill="#1C1C1C"/>
<rect x="10.6992" y="24.1934" width="80.357" height="1.97802" transform="rotate(30 10.6992 24.1934)" fill="#1C1C1C"/>
<rect x="17.2891" y="16.0312" width="80.357" height="1.97802" transform="rotate(45 17.2891 16.0312)" fill="#1C1C1C"/>
<rect x="25.7695" y="9.85156" width="80.357" height="1.97802" transform="rotate(60 25.7695 9.85156)" fill="#1C1C1C"/>
<rect x="35.5547" y="6.07422" width="80.357" height="1.97802" transform="rotate(75 35.5547 6.07422)" fill="#1C1C1C"/>
<rect x="38.8086" y="84.8516" width="80.357" height="1.97802" transform="rotate(-82.5473 38.8086 84.8516)" fill="#1C1C1C"/>
<rect x="28.7422" y="81.8965" width="80.357" height="1.97802" transform="rotate(-67.5473 28.7422 81.8965)" fill="#1C1C1C"/>
<rect x="19.7812" y="76.4336" width="80.357" height="1.97802" transform="rotate(-52.5473 19.7812 76.4336)" fill="#1C1C1C"/>
<rect x="12.5391" y="68.8418" width="80.357" height="1.97802" transform="rotate(-37.5473 12.5391 68.8418)" fill="#1C1C1C"/>
<rect x="7.51172" y="59.6348" width="80.357" height="1.97802" transform="rotate(-22.5473 7.51172 59.6348)" fill="#1C1C1C"/>
<rect x="5.03906" y="49.4355" width="80.357" height="1.97802" transform="rotate(-7.54733 5.03906 49.4355)" fill="#1C1C1C"/>
<rect x="5.28906" y="38.9492" width="80.357" height="1.97802" transform="rotate(7.45267 5.28906 38.9492)" fill="#1C1C1C"/>
<rect x="8.24219" y="28.8809" width="80.357" height="1.97802" transform="rotate(22.4527 8.24219 28.8809)" fill="#1C1C1C"/>
<rect x="13.7031" y="19.9219" width="80.357" height="1.97802" transform="rotate(37.4527 13.7031 19.9219)" fill="#1C1C1C"/>
<rect x="21.2969" y="12.6816" width="80.357" height="1.97802" transform="rotate(52.4527 21.2969 12.6816)" fill="#1C1C1C"/>
<rect x="30.5078" y="7.65234" width="80.357" height="1.97802" transform="rotate(67.4527 30.5078 7.65234)" fill="#1C1C1C"/>
<rect x="40.7031" y="5.17969" width="80.357" height="1.97802" transform="rotate(82.4527 40.7031 5.17969)" fill="#1C1C1C"/>
<path d="M84.5197 45.1277C84.5679 45.1748 84.614 45.2201 84.6581 45.2634C84.614 45.3068 84.5679 45.352 84.5197 45.3991C83.9837 45.9227 83.1897 46.6742 82.165 47.5776C80.1147 49.3854 77.1461 51.7971 73.4791 54.208C66.1281 59.0409 56.0584 63.8127 44.997 63.8127C33.9356 63.8127 23.8659 59.0409 16.515 54.208C12.8479 51.7971 9.87934 49.3854 7.82906 47.5776C6.80437 46.6742 6.0103 45.9227 5.47433 45.3991C5.42611 45.352 5.37999 45.3068 5.33597 45.2634C5.37999 45.2201 5.42611 45.1748 5.47433 45.1277C6.0103 44.6041 6.80437 43.8526 7.82906 42.9492C9.87934 41.1415 12.8479 38.7298 16.515 36.3188C23.8659 31.4859 33.9356 26.7141 44.997 26.7141C56.0584 26.7141 66.1281 31.4859 73.4791 36.3188C77.1461 38.7298 80.1147 41.1415 82.165 42.9492C83.1897 43.8526 83.9837 44.6041 84.5197 45.1277Z" fill="#F5F5F3" stroke="#1C1C1C" stroke-width="1.96721"/>
<circle cx="45.0017" cy="45.2634" r="18.5493" fill="#F5F5F3" stroke="#1C1C1C" stroke-width="1.96721"/>
<circle cx="44.9986" cy="45.2642" r="10.39" stroke="#1C1C1C" stroke-width="1.96721"/>
<circle cx="45.0035" cy="45.2633" r="6.80282" fill="#1C1C1C" stroke="#1C1C1C" stroke-width="1.22951"/>
<circle r="0.370955" transform="matrix(1 0 0 -1 44.8788 45.1388)" fill="#1C1C1C"/>
<path d="M45 45.2624L60.5769 39.8911L50.3713 29.6855L45 45.2624Z" fill="#F5F5F3"/>
<circle cx="45.0048" cy="45.5126" r="40.0603" stroke="#1C1C1C" stroke-width="1.96721"/>
</g>
<defs>
<clipPath id="clip0">
<rect width="89.9999" height="89.9999" fill="white" transform="translate(0 0.511719)"/>
</clipPath>
</defs>
</svg>
