<?xml version="1.0" encoding="UTF-8" standalone="no"?> <!-- Created with Vectornator for iOS (http://vectornator.io/) --><!DOCTYPE svg PUBLIC "-//W3C//DTD SVG 1.1//EN" "http://www.w3.org/Graphics/SVG/1.1/DTD/svg11.dtd">
<svg height="100%" style="fill-rule:nonzero;clip-rule:evenodd;stroke-linecap:round;stroke-linejoin:round;" xmlns:xlink="http://www.w3.org/1999/xlink" xmlns="http://www.w3.org/2000/svg" xml:space="preserve" width="100%" xmlns:vectornator="http://vectornator.io" version="1.1" viewBox="0 0 1000 275">
<metadata>
<vectornator:setting key="DimensionsVisible" value="1"/>
<vectornator:setting key="PencilOnly" value="0"/>
<vectornator:setting key="SnapToPoints" value="0"/>
<vectornator:setting key="OutlineMode" value="0"/>
<vectornator:setting key="CMYKEnabledKey" value="0"/>
<vectornator:setting key="RulersVisible" value="1"/>
<vectornator:setting key="SnapToEdges" value="0"/>
<vectornator:setting key="GuidesVisible" value="1"/>
<vectornator:setting key="DisplayWhiteBackground" value="0"/>
<vectornator:setting key="doHistoryDisabled" value="0"/>
<vectornator:setting key="SnapToGuides" value="1"/>
<vectornator:setting key="TimeLapseWatermarkDisabled" value="0"/>
<vectornator:setting key="Units" value="Points"/>
<vectornator:setting key="DynamicGuides" value="0"/>
<vectornator:setting key="IsolateActiveLayer" value="0"/>
<vectornator:setting key="SnapToGrid" value="0"/>
</metadata>
<defs/>
<g id="Untitled" vectornator:layerName="Untitled">
<path d="M515.951+8.52912C520.609+12.5642+523.173+16.9884+523.687+23.1385C523.794+30.5604+522.696+37.5343+521.275+44.8064C520.719+47.6539+520.186+50.5056+519.652+53.3573C519.37+54.8609+519.087+56.3643+518.804+57.8675C517.301+65.8486+515.899+73.8466+514.524+81.8506C514.128+84.1496+513.728+86.4478+513.327+88.7459C513.084+90.158+512.841+91.5701+512.599+92.9822C512.386+94.2176+512.173+95.4529+511.953+96.7256C511.402+99.9994+511.402+99.9994+511.498+103.869C511.777+103.13+512.057+102.392+512.345+101.631C515.314+94.1176+518.84+87.4691+523.498+80.869C523.969+80.1986+524.441+79.5283+524.927+78.8377C530.519+71.6346+539.541+66.4938+548.498+64.869C559.745+63.8556+569.677+64.8208+578.81+71.869C585.158+77.9038+589.035+86.5785+589.675+95.2747C590.027+109.78+588.814+123.251+585.954+137.465C584.878+143.133+584.331+148.785+584.248+154.556C584.222+155.633+584.196+156.709+584.169+157.818C584.74+163.125+587.805+166.319+591.185+170.244C593.498+173.214+594.458+174.68+595.248+178.431C594.017+184.07+591.875+188.001+587.291+191.603C578.334+197.302+570.299+199.111+559.81+199.181C559.002+199.187+558.194+199.193+557.361+199.199C550.085+199.11+543.866+198.238+538.498+192.869C531.11+180.469+534.946+165.501+537.31+152.119C537.575+150.575+537.838+149.031+538.101+147.486C539.137+141.436+540.2+135.393+541.353+129.364C541.491+128.643+541.628+127.922+541.77+127.18C542.148+125.213+542.532+123.248+542.917+121.283C543.906+115.466+544.574+110.266+542.123+104.806C540.635+102.772+540.635+102.772+538.498+101.869C533.59+101.543+529.449+102.385+525.498+105.369C506.362+124.085+502.365+159.331+499.015+184.17C498.061+189.142+496.074+191.78+491.873+194.681C486.17+197.533+481.035+197.092+474.685+197.119C472.901+197.15+472.901+197.15+471.082+197.181C469.934+197.186+468.786+197.192+467.603+197.197C466.553+197.206+465.502+197.216+464.42+197.225C461.061+196.816+459.204+195.871+456.498+193.869C450.47+182.856+455.921+166.314+457.985+154.774C458.684+150.813+459.318+146.844+459.935+142.869C460.05+142.139+460.164+141.408+460.282+140.656C460.688+138.06+461.093+135.465+461.498+132.869C461.895+130.327+462.292+127.786+462.689+125.244C462.905+123.863+463.12+122.482+463.336+121.102C463.776+118.284+464.217+115.467+464.657+112.65C464.872+111.274+465.087+109.898+465.302+108.521C465.407+107.853+465.511+107.184+465.619+106.496C466.208+102.726+466.795+98.9557+467.38+95.1854C468.546+87.7088+469.776+80.2526+471.123+72.8065C472.191+66.8379+473.153+60.9273+473.498+54.869C473.574+53.848+473.65+52.8271+473.728+51.7752C474.135+45.3926+474.135+45.3926+471.248+39.9315C470.34+39.2508+469.433+38.5702+468.498+37.869C463.675+32.1082+463.675+32.1082+463.123+28.244C463.739+22.6974+466.259+18.8247+470.447+15.1658C481.809+7.08775+502.99+0.471482+515.951+8.52912Z" opacity="1" fill="#0fae81"/>
<path d="M94.4975+10.869C96.6225+13.0565+96.6225+13.0565+98.4975+15.869C101.049+19.4057+101.049+19.4057+104.498+21.869C107.334+21.9656+110.146+22.0021+112.983+21.9949C114.3+21.9977+114.3+21.9977+115.644+22.0006C117.556+22.0046+119.467+22.0067+121.378+22.0071C125.442+22.0105+129.504+22.0318+133.568+22.0523C141.137+22.0903+148.706+22.1216+156.275+22.1194C161.536+22.1187+166.797+22.142+172.058+22.1813C174.062+22.1918+176.067+22.1933+178.071+22.1857C180.88+22.1761+183.686+22.1972+186.495+22.2254C187.321+22.2152+188.147+22.205+188.998+22.1945C193.072+22.2676+195.744+22.64+199.017+25.1787C201.498+27.869+201.498+27.869+202.185+31.5565C201.303+41.3832+194.712+48.2769+188.189+55.0643C186.061+57.2821+184.041+59.5226+182.06+61.869C178.545+65.9347+174.723+69.6703+170.902+73.4449C167.547+76.7746+164.4+80.2082+161.337+83.8104C158.539+86.9413+155.53+89.8573+152.542+92.805C149.936+95.3892+147.437+98.011+145.06+100.806C141.56+104.913+137.738+108.656+133.902+112.445C130.547+115.775+127.4+119.208+124.337+122.81C121.541+125.94+118.533+128.854+115.546+131.801C112.305+135.015+109.286+138.344+106.33+141.818C103.226+145.293+99.8698+148.515+96.5366+151.767C94.4563+153.7+94.4563+153.7+93.4975+155.869C101.739+155.808+109.98+155.73+118.22+155.633C122.047+155.589+125.874+155.549+129.701+155.523C133.397+155.496+137.093+155.456+140.789+155.406C142.196+155.389+143.603+155.378+145.011+155.371C146.988+155.362+148.965+155.332+150.941+155.301C152.065+155.29+153.189+155.279+154.346+155.268C161.918+154.31+165.771+149.712+170.265+144.076C172.812+141.085+174.306+139.917+178.162+138.951C181.498+138.869+181.498+138.869+184.435+139.681C187.344+142.767+186.895+145.043+186.803+149.154C186.31+153.534+184.652+157.071+182.701+160.982C182.311+161.8+181.921+162.617+181.519+163.459C180.697+165.172+179.866+166.88+179.027+168.584C177.747+171.183+176.495+173.795+175.248+176.41C174.442+178.081+173.635+179.751+172.826+181.42C172.453+182.194+172.079+182.968+171.695+183.765C166.735+193.797+166.735+193.797+162.173+195.983C159.484+196.873+157.465+197.125+154.647+197.136C153.223+197.149+153.223+197.149+151.771+197.162C150.742+197.161+149.712+197.16+148.652+197.159C147.012+197.17+147.012+197.17+145.339+197.18C141.727+197.199+138.114+197.203+134.501+197.205C131.989+197.211+129.477+197.218+126.966+197.225C121.701+197.237+116.436+197.241+111.171+197.24C105.094+197.238+99.0163+197.259+92.9389+197.291C87.0821+197.32+81.2255+197.328+75.3687+197.326C72.8812+197.329+70.3937+197.338+67.9062+197.353C64.428+197.373+60.9506+197.367+57.4724+197.355C56.4452+197.366+55.418+197.377+54.3596+197.389C48.4405+197.337+44.9977+196.835+40.4975+192.869C38.6059+189.086+38.8892+184.981+39.4975+180.869C40.9836+177.726+43.1459+175.407+45.4975+172.869C46.3096+171.952+47.1217+171.036+47.9585+170.092C53.4325+163.963+59.1825+158.149+65.0249+152.373C67.0492+150.323+68.9496+148.253+70.81+146.056C74.1664+142.115+77.8207+138.508+81.4975+134.869C86.8829+129.557+86.8829+129.557+91.935+123.931C95.9983+119.12+100.556+114.787+105.026+110.36C108.707+106.701+112.219+102.992+115.564+99.0213C119.004+95.1925+122.718+91.6297+126.376+88.0103C130.007+84.4021+133.467+80.7277+136.771+76.8143C139.83+73.3677+143.162+70.1877+146.458+66.9705C148.539+65.038+148.539+65.038+149.498+62.869C141.926+62.9071+134.354+62.9666+126.782+63.0529C123.266+63.0923+119.75+63.1245+116.233+63.14C112.184+63.1581+108.136+63.2081+104.087+63.2596C102.833+63.2608+101.579+63.262+100.286+63.2633C93.4963+63.3767+88.9782+63.7205+83.4975+67.869C81.4321+70.0515+81.4321+70.0515+79.8725+72.4315C76.7965+76.5692+74.6518+79.3745+69.3296+80.2088C65.3091+80.4777+63.2082+80.4063+59.935+77.9315C56.4943+70.6013+58.9348+63.1402+61.4975+55.869C61.8115+54.9583+62.1255+54.0477+62.4489+53.1094C78.6355+7.34406+78.6355+7.34406+94.4975+10.869Z" opacity="1" fill="#0fae81"/>
<path d="M298.81+66.369C304.021+69.3865+307.264+74.0481+309.642+79.4861C318.135+113.072+299.437+154.61+282.994+182.791C264.41+213.645+238.296+239.163+203.201+249.549C189.955+252.793+175.142+252.093+163.06+245.549C158.214+242.288+155.111+238.52+153.498+232.869C152.609+227.557+152.899+223.235+155.56+218.494C158.233+214.826+161.08+212.15+165.498+210.869C171.007+210.158+175.735+210.038+180.81+212.431C182.956+214.378+184.976+216.361+186.998+218.431C191.366+222.866+195.007+225.001+201.31+225.244C206.495+225.058+210.745+223.893+215.498+221.869C216.401+221.502+217.305+221.134+218.236+220.756C231.248+214.913+241.449+204.689+250.498+193.869C249.504+194.193+248.51+194.516+247.486+194.849C238.178+197.495+226.284+197.057+217.498+192.869C207.049+186.836+201.687+177.275+198.498+165.869C197.197+159.707+196.573+153.434+195.873+147.181C195.665+145.452+195.456+143.723+195.246+141.994C194.315+134.276+193.457+126.551+192.623+118.822C192.493+117.642+192.364+116.462+192.23+115.247C192+113.111+191.78+110.975+191.573+108.837C190.74+100.925+189.542+94.0715+183.373+88.494C178.616+84.1204+178.616+84.1204+178.185+79.5565C178.552+75.2317+179.377+73.8205+182.498+70.869C186.162+69.0788+189.144+68.6065+193.202+68.5626C194.324+68.5466+195.445+68.5306+196.601+68.5141C197.803+68.5087+199.005+68.5034+200.244+68.4979C201.487+68.4889+202.731+68.4798+204.013+68.4705C206.641+68.456+209.27+68.4471+211.898+68.4434C214.588+68.4391+217.277+68.4182+219.967+68.3819C223.851+68.3331+227.734+68.3176+231.619+68.3104C232.819+68.2908+234.019+68.2713+235.255+68.2512C244.552+68.3014+244.552+68.3014+248.248+71.1734C250.621+74.0164+251.486+75.8614+251.236+79.6072C249.644+84.4824+245.826+88.0831+242.498+91.869C240.887+95.0899+241.307+98.581+241.31+102.119C241.311+103.45+241.311+103.45+241.312+104.808C241.395+114.714+241.877+124.602+242.372+134.494C242.411+135.319+242.45+136.144+242.491+136.994C242.454+153.848+242.454+153.848+248.497+168.869C251.975+170.608+255.694+170.319+259.497+169.869C268.573+165.42+273.102+156.999+276.497+147.869C283.557+127.128+283.557+127.128+281.368+105.92C279.876+103.437+278.261+101.166+276.498+98.869C275.384+97.2083+274.28+95.5417+273.185+93.869C272.448+92.7861+272.448+92.7861+271.697+91.6815C268.924+87.4905+268.947+83.7911+269.498+78.869C271.15+73.2746+273.988+69.9498+278.814+66.7791C284.732+63.5797+292.705+63.6937+298.81+66.369Z" opacity="1" fill="#0fae81"/>
<path d="M842.498+74.869C847.457+79.4779+851.839+84.1086+852.798+91.0447C852.828+96.4376+852.212+101.127+849.498+105.869C845.517+109.75+842.237+111.017+836.748+111.119C831.847+111.055+828.744+110.332+824.498+107.869C820.438+103.361+818.04+98.2318+815.376+92.8299C813.342+89.6232+811.934+88.404+808.498+86.869C804.208+85.9672+801.258+86.3838+797.56+88.744C794.919+91.4653+794.541+92.2983+794.248+96.119C794.681+102.617+797.605+106.522+802.158+110.892C805.639+113.833+809.357+116.419+813.085+119.032C826.844+128.69+837.074+137.598+842.498+153.869C843.626+164.028+841.474+172.979+835.736+181.478C831.154+187.018+825.841+190.588+819.498+193.869C818.524+194.383+817.551+194.898+816.548+195.428C806.791+200.037+796.471+200.172+785.873+200.244C784.175+200.265+784.175+200.265+782.444+200.286C770.126+200.219+759.882+197.523+749.498+190.869C748.827+190.44+748.157+190.01+747.466+189.568C741.364+185.032+737.4+177.73+736.021+170.303C735.842+165.499+736.752+161.896+739.498+157.869C743.719+153.715+746.814+151.716+752.748+151.619C757.474+151.699+760.64+151.909+764.498+154.869C768.198+159.409+770.854+164.512+773.56+169.681C776.487+175.281+776.487+175.281+781.498+178.869C786.8+179.687+790.965+179.741+795.685+177.056C798.383+172.312+798.291+168.198+797.498+162.869C793.9+153.385+784.54+147.499+776.498+141.869C766.907+135.139+758.756+128.599+753.498+117.869C753.126+117.123+752.755+116.376+752.373+115.607C749.654+107.099+750.227+96.2665+753.998+88.244C760.384+77.5255+769.543+70.8242+781.488+67.2781C801.157+62.3182+825.551+62.3997+842.498+74.869Z" opacity="1" fill="#0fae81"/>
<path d="M924.498+32.869C927.373+34.619+927.373+34.619+929.498+37.869C930.337+43.8992+929.866+49.8427+928.097+55.6592C927.383+58.2917+926.902+60.9295+926.427+63.6151C926.252+64.6005+926.076+65.5859+925.895+66.6011C925.764+67.3495+925.633+68.0979+925.498+68.869C926.355+68.8585+927.213+68.848+928.096+68.8372C931.287+68.8031+934.477+68.778+937.668+68.7591C939.047+68.749+940.426+68.7354+941.806+68.7181C943.791+68.6937+945.777+68.6835+947.763+68.6736C948.957+68.6632+950.151+68.6527+951.381+68.6419C954.409+68.8625+956.024+69.163+958.498+70.869C961.197+74.9185+961.032+78.118+960.498+82.869C959.2+86.0782+958.4+87.4051+955.325+88.9856C951.905+90.0539+949.028+90.0947+945.447+90.0643C944.788+90.0615+944.129+90.0586+943.45+90.0557C941.362+90.0445+939.274+90.0194+937.185+89.9939C935.763+89.9839+934.34+89.9748+932.917+89.9666C929.444+89.9447+925.971+89.9102+922.498+89.869C922.392+90.7295+922.287+91.59+922.178+92.4766C921.774+95.7482+921.365+99.0191+920.953+102.29C920.778+103.69+920.604+105.091+920.433+106.493C919.36+115.245+918.009+123.854+916.181+132.482C915.019+138.24+914.273+144.049+913.498+149.869C913.217+151.779+913.217+151.779+912.931+153.728C910.477+165.676+910.477+165.676+912.798+177.103C914.504+179.23+914.504+179.23+917.998+179.431C921.562+179.263+921.562+179.263+923.126+176.814C924.749+173.329+925.368+169.945+925.935+166.181C927.236+158.57+928.726+151.507+933.498+145.244C938.396+142.999+943.218+143.02+948.498+143.869C951.722+145.512+953.856+147.587+955.498+150.869C956.747+162.51+954.153+173.411+947.123+182.869C945.947+184.231+944.74+185.567+943.498+186.869C942.964+187.431+942.43+187.993+941.88+188.572C930.097+199.735+914.871+200.513+899.583+200.244C889.753+199.826+882.287+196.626+875.115+189.752C868.111+181.598+867.119+171.328+867.162+160.99C867.165+159.948+867.168+158.907+867.171+157.833C867.343+145.723+869.06+133.886+870.873+121.931C871.194+119.708+871.515+117.485+871.834+115.262C873.124+106.386+874.454+97.607+876.498+88.869C875.75+88.927+875.002+88.985+874.232+89.0447C866.227+89.4115+866.227+89.4115+862.81+86.869C861.178+83.1392+860.468+79.8651+861.498+75.869C864.703+70.0586+869.641+69.1641+875.623+67.4315C890.58+62.7427+899.209+56.7608+908.06+43.6815C916.753+31.0171+916.753+31.0171+924.498+32.869Z" opacity="1" fill="#0fae81"/>
<path d="M380.593+64.324C376.282+64.3844+371.969+64.9634+367.81+65.994C348.465+72.2391+332.79+84.7552+323.056+102.681C313.64+121.939+307.597+146.108+314.259+167.291C318.971+179.14+324.197+188.018+335.873+193.744C345.57+197.52+357.603+197.443+367.38+193.822C368.1+193.498+368.799+193.183+369.498+192.869C381.629+187.446+389.045+175.818+394.769+164.392C395.887+162.124+396.69+159.676+398.498+157.869C394.457+178.599+393.048+210.503+377.498+225.869C372.019+230.983+366.88+231.408+359.548+231.338C352.491+230.253+348.282+225.195+344.103+219.748C340.625+214.97+337.159+210.022+332.748+206.056C327.59+202.512+327.59+202.512+314.498+203.869C310.51+205.863+307.75+209.07+305.498+212.869C304.452+218.863+304.829+224.369+307.498+229.869C315.525+241.41+327.612+246.779+341.064+249.623C363.789+253.128+387.134+251.006+406.693+238.041C425.906+223.162+433.632+198.822+437.234+175.635C437.523+173.707+437.812+171.779+438.109+169.853C438.651+166.351+439.19+162.848+439.722+159.344C440.571+153.749+441.428+148.155+442.289+142.562C442.608+140.488+442.927+138.413+443.244+136.338C444.302+129.409+445.379+122.485+446.56+115.576C446.681+114.87+446.8+114.185+446.917+113.5C447.373+110.831+447.831+108.162+448.29+105.494C450.066+95.5101+454.544+78.9383+448.498+69.869C445.937+67.6835+443.774+66.1113+440.419+65.4744C432.285+65.0904+426.131+68.2054+420.185+73.5565C417.659+76.0295+416.02+77.2858+412.498+77.869C411.244+75.3622+411.244+75.3622+407.298+72.1697C399.544+66.5688+390.077+64.1913+380.593+64.324ZM387.503+88.5428C388.756+88.5391+390.084+88.6456+391.498+88.869C395.806+90.8638+398.653+93.425+400.802+97.7322C405.589+112.443+398.027+133.77+391.472+147.062C388.412+152.732+384.724+157.324+379.435+160.994C375.802+162.076+373.27+162.408+369.498+161.869C365.28+159.436+363.308+157.241+361.623+152.681C357.62+136.528+360.639+116.453+368.498+101.869C373.635+93.9559+378.732+88.5686+387.503+88.5428Z" opacity="1" fill="#0fae81"/>
</g>
<g id="Layer 1" vectornator:layerName="Layer 1">
<path stroke="#1b2320" stroke-width="1" d="M707.236+78.4651C708.032+78.4792+708.783+79.3727+709.552+79.6539C709.55+79.7814+709.55+79.7814+709.548+79.9089C709.923+79.9155+709.716+79.885+710.16+80.0472C710.158+80.1747+710.158+80.1747+710.156+80.3022C710.773+80.3131+714.173+82.7771+714.164+83.3065C716.571+83.349+723.102+93.6674+724.076+93.6847C724.071+94.0309+724.46+94.7117+724.797+94.7177C724.912+95.0972+724.973+95.6136+725.397+95.6211C725.394+95.8123+725.394+95.8123+725.391+96.0036C725.514+96.0058+725.514+96.0058+725.637+96.0079C725.634+96.1992+725.634+96.1992+725.631+96.3904C725.754+96.3926+725.754+96.3926+725.877+96.3948C725.954+96.6512+726.032+96.9077+726.11+97.1641C726.233+97.1663+726.233+97.1663+726.356+97.1685C726.353+97.3597+726.353+97.3597+726.35+97.551C726.473+97.5531+726.473+97.5531+726.595+97.5553C728.666+104.378+732.417+109.808+733.406+117.316C735.181+130.785+733.738+144.479+730.425+157.31C728.586+164.434+722.478+177.823+717.956+183.49C713.108+189.565+711.441+198.435+708.629+205.389C706.782+209.956+706.817+216.873+706.645+221.678C706.267+232.221+706.575+242.574+707.368+253.065C707.779+258.51+709.154+264.231+709.066+269.675C697.307+263.313+686.251+252.713+677.531+243.355C674.644+240.257+673.224+234.971+670.703+232.266C667.796+233.71+664.776+237.458+662.469+239.772C655.268+246.996+647.675+254.953+639.749+261.307C635.886+252.943+635.01+242.996+631.085+234.499C630.557+233.354+627.357+227.036+626.658+227.023C625.971+227.011+624.164+230.647+623.638+231.306C620.635+235.069+616.199+238.745+612.538+241.185C606.12+245.464+598.186+248.224+590.518+249.851C586.675+250.666+582.233+250.103+578.571+251.298C597.889+231.921+604.088+201.988+603.525+175.089C602.942+147.181+597.283+119.6+612.197+94.7671C627.024+70.0794+653.608+66.1553+679.482+69.1742C686.807+70.029+694.236+72.2117+701.02+75.1667C701.798+75.5059+707.25+77.5493+707.236+78.4651Z" fill="#1b2320" stroke-linecap="round" opacity="1" stroke-linejoin="round"/>
<path stroke="#4eaa83" stroke-width="1" d="M703.68+260.652C701.681+258.506+698.779+256.992+696.516+255.169C690.258+250.125+684.796+245.478+680.808+238.311C677.886+233.061+676.432+226.769+674.942+220.99C674.488+219.233+674.231+215.268+672.468+214.314C671.616+216.825+671.644+219.535+670.622+222.062C666.93+231.19+657.935+237.912+651.21+244.292C649.939+245.497+642.957+252.819+641.976+252.801C642.023+249.885+640.39+246.519+639.664+243.705C637.975+237.156+631.879+215.936+625.522+213.612C626.965+218.369+623.487+223.268+620.882+226.921C612.451+238.74+601.744+241.495+589.111+245.617C605.457+223.781+609.249+192.593+607.358+166.102C606.055+147.847+603.634+128.988+609.593+111.428C610.968+107.376+612.245+102.23+614.837+98.7674C620.698+90.9383+627.967+79.8268+638.169+77.3712C640.591+76.7884+642.859+75.29+645.342+74.6923C650.882+73.3589+656.64+72.4911+662.342+72.4422C692.005+72.1877+721.628+83.8422+728.761+115.704C730.199+122.127+729.768+129.48+729.665+135.871C729.243+162.008+711.466+180.645+704.463+204.55C699.12+222.789+703.979+242.146+703.68+260.652Z" fill="#0fae81" stroke-linecap="round" opacity="1" stroke-linejoin="round"/>
<path stroke="#010101" stroke-width="1" d="M666.979+82.2169C687.577+81.9284+703.548+91.5619+713.496+109.44C716.381+114.623+717.893+121.759+717.997+127.629C718.469+154.358+697.082+176.222+671.354+176.671C639.954+177.22+613.687+151.477+621.541+117.506C622.862+111.795+625.85+106.429+629.293+101.829C633.054+96.804+637.703+92.4995+643.016+89.3179C650.364+84.9181+658.508+82.3356+666.979+82.2169Z" fill="#010101" stroke-linecap="round" opacity="1" stroke-linejoin="round"/>
<path stroke="#fcfcfc" stroke-width="1" d="M664.805+87.4075C678.876+86.3879+688.409+88.0488+687.383+105.152C687.261+107.172+682.676+111.43+681.481+112.827C675.879+119.381+669.683+125.346+663.241+130.997C658.82+134.876+654.29+138.629+649.661+142.236C648.937+142.799+647.327+144.611+646.425+144.729C637.485+145.893+631.163+144.418+626.886+136.731C626.345+135.76+624.901+134.065+624.858+132.869C624.611+125.98+626.096+120.137+628.606+113.933C635.013+98.0907+649.231+88.5361+664.805+87.4075Z" fill="#fcfcfc" stroke-linecap="round" opacity="1" stroke-linejoin="round"/>
<path stroke="#f8f8f8" stroke-width="1" d="M701.068+110.24C713.073+108.649+714.413+128.37+712.556+137.226C709.005+154.167+693.491+167.851+677.581+171.68C662.342+175.348+655.994+168.709+656.235+153.83C656.258+152.396+656.51+150.333+657.05+148.998C659.238+143.587+665.456+137.791+669.221+133.654C677.821+124.207+688.189+111.947+701.068+110.24Z" fill="#f8f8f8" stroke-linecap="round" opacity="1" stroke-linejoin="round"/>
<path stroke="#fafafa" stroke-width="1" d="M646.729+156.34C655.641+154.802+656.646+169.016+648.975+169.516C640.352+170.079+638.559+157.75+646.729+156.34Z" fill="#fafafa" stroke-linecap="round" opacity="1" stroke-linejoin="round"/>
<path stroke="#fcfcfc" stroke-width="1" d="M634.959+146.822C643.739+145.565+645.232+158.391+636.973+159.101C628.838+159.8+626.876+147.979+634.959+146.822Z" fill="#fcfcfc" stroke-linecap="round" opacity="1" stroke-linejoin="round"/>
</g>
</svg>
