<svg id="svg" version="1.1" xmlns="http://www.w3.org/2000/svg" style="display: block;" viewBox="0 0 979 250"><script xmlns="">try {
                        Object.defineProperty(screen, "availTop", { value: 0 });
                    } catch (e) {}
                    try {
                        Object.defineProperty(screen, "availLeft", { value: 0 });
                    } catch (e) {}
                    try {
                        Object.defineProperty(screen, "availWidth", { value: 3840 });
                    } catch (e) {}
                    try {
                        Object.defineProperty(screen, "availHeight", { value: 2160 });
                    } catch (e) {}
                    try {
                        Object.defineProperty(screen, "colorDepth", { value: 24 });
                    } catch (e) {}
                    try {
                        Object.defineProperty(screen, "pixelDepth", { value: 24 });
                    } catch (e) {}
                    try {
                        Object.defineProperty(navigator, "hardwareConcurrency", { value: 8 });
                    } catch (e) {}
                    try {
                        Object.defineProperty(navigator, "appVersion", { value: "5.0 (X11)" });
                    } catch (e) {}
                    try {
                        Object.defineProperty(navigator, "doNotTrack", { value: "unspecified" });
                    } catch (e) {}

            try {
                window.screenY = 0
            } catch (e) { }

            try {
                window.screenTop = 0
            } catch (e) { }

            try {
                window.top.window.outerHeight = 1914
            } catch (e) { }

            try {
                window.screenX = 816
            } catch (e) { }

            try {
                window.screenLeft = 816
            } catch (e) { }

            try {
                window.top.window.outerWidth = 2259
            } catch (e) { }
        </script><path d="M0 0 C3.9458369864729548 3.192455222945867 3.9458369864729548 3.192455222945867 5.19921875 5.69921875 C8.721411958577733 5.116074179043423 10.360702169040053 3.8597790085079566 12.88671875 1.38671875 C18.83238286869164 -3.964378956822472 24.9861955824465 -7.079302448468432 33.12109375 -6.6953125 C36.47555205210489 -6.05846985241994 38.63914748068987 -4.486207943313552 41.19921875 -2.30078125 C47.24542626002017 6.768530015030265 42.76772264999306 23.340358068787737 40.9921875 33.32421875 C40.53247685630777 35.99230564949269 40.07431918839586 38.66061161200612 39.618408203125 41.329345703125 C39.500720825195344 42.01479367256164 39.38303344726563 42.70024164199829 39.26177978515625 43.406460762023926 C38.080994433186675 50.315430025398214 37.00448233462822 57.23930644101708 35.94586753845215 64.16789817810059 C35.62879118308342 66.2429405322631 35.30997939036013 68.31770940164824 34.99067687988281 70.39241027832031 C34.130412824015934 75.98545497394485 33.272195580607445 81.57879520882014 32.42333984375 87.173583984375 C31.891399577360062 90.67794327668739 31.35315857553212 94.18128743584273 30.810977935791016 97.6840763092041 C30.51459301671116 99.6102358630402 30.22492833238863 101.5374257937294 29.935516357421875 103.46464538574219 C26.334087185084456 126.65238447399707 18.60792787495984 150.9927531880534 -0.60546875 165.87109375 C-20.163930197554976 178.83619283988062 -43.50981433086815 180.95863975262768 -66.234375 177.453125 C-79.68632589165372 174.60950339858798 -91.77309968946395 169.24040082733575 -99.80078125 157.69921875 C-102.4696310276463 152.1992242757965 -102.84618960308632 146.69289330769496 -101.80078125 140.69921875 C-99.5484029306391 136.9001681121223 -96.78796526419586 133.69281075709793 -92.80078125 131.69921875 C-79.70879229123568 130.34191280808082 -79.70879229123568 130.34191280808082 -74.55078125 133.88671875 C-70.13945632637086 137.85216782113332 -66.67376077385848 142.7998880079205 -63.1953125 147.578125 C-59.01619325173624 153.02529674447433 -54.807628216035084 158.0835700484325 -47.75 159.16796875 C-40.418507687619694 159.2382105925138 -35.2796727009038 158.81368852182993 -29.80078125 153.69921875 C-14.250025108725254 138.3335906580261 -12.841508639412496 106.42920295219619 -8.80078125 85.69921875 C-10.607881263044419 87.50631876304442 -11.412019701849658 89.95478106910318 -12.529541015625 92.2236328125 C-18.253400000576733 103.64940627511288 -25.66971599594831 115.27591898936512 -37.80078125 120.69921875 C-38.499453125 121.01374999999999 -39.198125000000005 121.32828125 -39.91796875 121.65234375 C-49.69571831527571 125.27373247787989 -61.72866212078327 125.35073499379044 -71.42578125 121.57421875 C-83.10109971749489 115.84820873657011 -88.32735737886401 106.9699386959791 -93.0390625 95.12109375 C-99.70153764455762 73.937839444227 -93.65862087158075 49.769386998646326 -84.2421875 30.51171875 C-74.50878499480001 12.585452265602896 -58.83373657727054 0.0693732475423019 -39.48828125 -6.17578125 C-26.180455741756987 -9.47346821611886 -11.278310905364833 -8.1468059251334 0 0 Z " transform="translate(388.80078125,68.30078125)" style="fill: #0FAE81;"/><path d="M0 0 C4.658528559512206 4.035038626042187 7.222106356689778 8.459317646899436 7.73681640625 14.609375 C7.843699429109847 22.031332107390774 6.745225061533461 29.00518314365661 5.32452392578125 36.277252197265625 C4.768637639651502 39.124810664800115 4.235643333658004 41.97651874481782 3.701385498046875 44.82820129394531 C3.419635038304591 46.331801599170475 3.1368470165556346 47.835207827065915 2.853057861328125 49.33842468261719 C1.349899236589522 57.31952657949343 -0.05165091140742106 65.3175149240728 -1.42694091796875 73.321533203125 C-1.8226463468777752 75.62051371722487 -2.2230212511342415 77.91864995464333 -2.62353515625 80.216796875 C-2.866539466249151 81.62884975187467 -3.10923160318481 83.04095639879937 -3.3515625 84.453125 C-3.564741210937484 85.68844970703125 -3.777919921874968 86.9237744140625 -3.99755859375 88.196533203125 C-4.548747291129473 91.47025838336097 -4.548747291129473 91.47025838336097 -4.453125 95.33984375 C-4.173398437499998 94.6012109375 -3.8936718749999955 93.862578125 -3.60546875 93.1015625 C-0.6365015529170819 85.58845258326602 2.889145295900903 78.94003472083098 7.546875 72.33984375 C8.018671874999995 71.66953125 8.490468749999991 70.99921875 8.9765625 70.30859375 C14.568471449353865 63.10545679828995 23.590171903559167 57.964672947405305 32.546875 56.33984375 C43.794345249034336 55.32644542945297 53.72600753131121 56.29164130718165 62.859375 63.33984375 C69.20774660793381 69.3747155254433 73.08405694289274 78.04934839174551 73.723876953125 86.74560546875 C74.07605737332608 101.25094883145485 72.86335239743732 114.72183698740606 70.00341796875 128.936279296875 C68.9269518083554 134.6035570236586 68.3804162537856 140.25603546764202 68.296875 146.02734375 C68.27109374999998 147.1037109375 68.24531249999995 148.180078125 68.21875 149.2890625 C68.7894752858407 154.5954487885904 71.85453091025818 157.78940637952417 75.234375 161.71484375 C77.5469452820613 164.68534273226558 78.50719601141691 166.15136855423063 79.296875 169.90234375 C78.06664395401094 175.54090271078314 75.92401471640119 179.47179059233252 71.33984375 183.07421875 C62.38288755217661 188.772817653812 54.34817708469018 190.58211743283803 43.859375 190.65234375 C43.051213378906255 190.6579833984375 42.24305175781251 190.663623046875 41.410400390625 190.66943359375 C34.13470662297573 190.58118897821063 27.91579745108868 189.70876620108868 22.546875 184.33984375 C15.1594695592662 171.9395560459112 18.99559734377692 156.97203277012775 21.359375 143.58984375 C21.62392818055082 142.04572365136437 21.887604038189238 140.50145297807248 22.150390625 138.95703125 C23.186672389957266 132.90721222358619 24.24920783162895 126.86346578663202 25.40234375 120.834716796875 C25.540006561279256 120.11398986816407 25.677669372558626 119.39326293945312 25.819503784179688 118.65069580078125 C26.197735241076884 116.68425297707158 26.581698390923975 114.71891505597856 26.966064453125 112.753662109375 C27.955635798207254 106.9372787053041 28.62325178883725 101.73722841604648 26.171875 96.27734375 C24.68435000744705 94.24278224976726 24.68435000744705 94.24278224976726 22.546875 93.33984375 C17.639276258621976 93.0140280659251 13.49881272373932 93.85605141239762 9.546875 96.83984375 C-9.588425592658382 115.55584492728141 -13.585413087819461 150.8014856807191 -16.935302734375 175.640869140625 C-17.889280065374464 180.6131555122417 -19.876216054273982 183.25102566842725 -24.078125 186.15234375 C-29.780282840397888 189.00342267019894 -34.915769879965524 188.56257652457847 -41.265625 188.58984375 C-43.04936523437499 188.62078125 -43.04936523437499 188.62078125 -44.869140625 188.65234375 C-46.01705078125002 188.6575 -47.164960937499984 188.66265625 -48.34765625 188.66796875 C-49.39800048828124 188.677314453125 -50.44834472656248 188.68666015625 -51.530517578125 188.6962890625 C-54.89011548184874 188.28654777610484 -56.74710639193768 187.34164257152986 -59.453125 185.33984375 C-65.48023993584718 174.32666100358833 -60.029506652885516 157.7851355497609 -57.9658203125 146.2451171875 C-57.266794187558105 142.2839691461625 -56.63304487762923 138.3144003844127 -56.015625 134.33984375 C-55.901140136718766 133.6094287109375 -55.786655273437475 132.879013671875 -55.668701171875 132.12646484375 C-55.262218376386045 129.53112479186242 -54.857713240796386 126.93547982658404 -54.453125 124.33984375 C-54.056073038290776 121.79816400889486 -53.658936339051365 119.25649760324478 -53.26171875 116.71484375 C-53.04597580814783 115.33406638168597 -52.8302369326924 113.9532883780022 -52.614501953125 112.572509765625 C-52.17431322669961 109.7552774864558 -51.734039535856084 106.93805850365591 -51.293701171875 104.120849609375 C-51.078612095033236 102.74462909164292 -50.863524188039605 101.3684083910751 -50.6484375 99.9921875 C-50.54394790649417 99.32372299194336 -50.43945831298828 98.65525848388671 -50.33180236816406 97.96653747558594 C-49.742694130840846 94.19674189447052 -49.15569295487603 90.42662600309646 -48.5703125 86.65625 C-47.405003412817166 79.17971596484558 -46.174901072213686 71.72345359430958 -44.828125 64.27734375 C-43.76013765253367 58.30882017387397 -42.79734924093515 52.39819039045828 -42.453125 46.33984375 C-42.377070312499995 45.31890625 -42.30101562499999 44.29796875 -42.22265625 43.24609375 C-41.815754753864155 36.86348046678805 -41.815754753864155 36.86348046678805 -44.703125 31.40234375 C-45.61062500000003 30.72171875 -46.518125 30.04109375 -47.453125 29.33984375 C-52.27609150717706 23.579078199760758 -52.27609150717706 23.579078199760758 -52.828125 19.71484375 C-52.21184541979767 14.168327528178867 -49.69144835704117 10.295573176192274 -45.50390625 6.63671875 C-34.14155443916519 -1.4413626092290706 -12.961033792098078 -8.05763383977779 0 0 Z " transform="translate(509.453125,4.66015625)" style="fill: #0FAE81;"/><path d="M0 0 C9.22096925619769 7.781939205609291 14.532831374108127 17.441038647548808 18.015625 28.86328125 C18.373984374999964 29.90871093749999 18.73234375000004 30.954140625000008 19.1015625 32.03125 C20.261175710053863 36.89270538061041 20.357711130517032 41.44544927963619 20.328125 46.42578125 C20.320753173828052 47.88842407226562 20.320753173828052 47.88842407226562 20.313232421875 49.380615234375 C19.989594825872473 69.44448650655144 13.12529450493571 87.54645392894065 -0.796875 102.17578125 C-17.155993255087992 117.76065116019072 -38.26069329603854 123.37857279194341 -60.296875 123.08203125 C-70.30870097832224 122.75323565136873 -80.15732636163068 120.70181161473579 -88.984375 115.86328125 C-89.80421875000002 115.41984375000001 -90.62406250000004 114.97640625 -91.46875 114.51953125 C-105.56339170978367 106.48985657897171 -113.9686009954471 95.36658271861819 -118.984375 79.86328125 C-123.09085709419276 59.04315547307385 -120.42366878677274 37.792623348452025 -108.984375 19.86328125 C-97.3308644640847 3.1202783575829613 -79.9703023395673 -8.011311154106068 -59.984375 -12.13671875 C-38.60155561865463 -15.304543843532642 -17.888748559787132 -12.80778201859107 0 0 Z " transform="translate(720.984375,74.13671875)" style="fill: #0FAE81;"/><path d="M0 0 C2.125 2.1875 2.125 2.1875 4 5 C6.55194674382318 8.536695439419518 6.55194674382318 8.536695439419518 10 11 C12.83633193353758 11.0966742952915 15.648782287544577 11.133115622218966 18.4853515625 11.1259765625 C19.80269538879395 11.128778762817383 19.80269538879395 11.128778762817383 21.146652221679688 11.131637573242188 C23.05806432982253 11.135647259240777 24.969481246472398 11.137716930849969 26.880897521972656 11.138099670410156 C30.9440000757686 11.141508840569443 35.00694168696897 11.162864686979454 39.06998825073242 11.183330535888672 C46.63929057681801 11.221382565020981 54.20842321620944 11.252615754731337 61.77783203125 11.25048828125 C67.03881791055241 11.249701191885684 72.29921801365225 11.27306624334652 77.56005096435547 11.312370300292969 C79.56464758948985 11.322834529297864 81.56931179543065 11.324351237991245 83.57392120361328 11.316719055175781 C86.38228155364342 11.30709523287181 89.1888699053574 11.328283919817324 91.9970703125 11.3564453125 C92.82327377319336 11.346248626708984 93.64947723388673 11.336051940917969 94.50071716308594 11.325546264648438 C98.574816001118 11.398687147624763 101.24673441335665 11.771034084305391 104.51971435546875 14.30975341796875 C107 16.999999999999982 107 16.999999999999982 107.6875 20.6875 C106.8058485282966 30.514240361694092 100.21432537405764 37.40798023892027 93.69140625 44.1953125 C91.56314389416033 46.413153387507805 89.54373575977223 48.65367165550315 87.5625 51 C84.04732841942396 55.06574062331688 80.22557322159747 58.80133530067161 76.40478515625 62.575927734375 C73.04932249689205 65.90561151786143 69.90278575578697 69.33926662950238 66.83984375 72.94140625 C64.04164208191524 76.07230280855768 61.03226344249043 78.98829695257821 58.04443359375 81.93603515625 C55.43879261307363 84.52022317516436 52.93946890923773 87.14209157617763 50.5625 89.9375 C47.06289503373851 94.04426534595024 43.240179911475366 97.78724806417783 39.40478515625 101.57568359375 C36.04955443240149 104.9056632867511 32.90282125008736 108.33922488681658 29.83984375 111.94140625 C27.043020579608623 115.07076041304938 24.035246515229602 117.98541629116649 21.048828125 120.931640625 C17.807662354029205 124.14605674724203 14.788165731218314 127.47522129396972 11.83203125 130.94921875 C8.728244239532899 134.42360719455272 5.372259223215991 137.64580142266234 2.0390625 140.8984375 C-0.041260910151557084 142.83096046132496 -0.041260910151557084 142.83096046132496 -1 145 C7.241178419900507 144.93868562413508 15.48199284988155 144.86150591324082 23.72281837463379 144.76428508758545 C27.54972842641743 144.71963122542607 31.37653324981956 144.68036444693038 35.20361328125 144.653564453125 C38.89965758757796 144.62748125057502 42.59529587439427 144.58704424348895 46.29108810424805 144.5368137359619 C47.69836740864507 144.52017874758945 49.105716888393246 144.50864351540233 50.51308059692383 144.50238609313965 C52.49011701417432 144.49270918808014 54.46702358961144 144.4629221415386 56.44384765625 144.432373046875 C57.5674771118164 144.42126998901367 58.69110656738282 144.41016693115233 59.848785400390625 144.3987274169922 C67.42018440792955 143.44070812828127 71.27302786163453 138.8433688783614 75.767578125 133.20703125 C78.31419826410752 130.21576315009594 79.80809279053295 129.04807909832064 83.6640625 128.08203125 C87 128 87 128 89.9375 128.8125 C92.8465423417941 131.89784793826647 92.3974419172751 134.17365178420422 92.3052978515625 138.28500366210938 C91.81282262036376 142.66455773483975 90.15488891258215 146.2018380810951 88.203125 150.11328125 C87.81308288574218 150.93072311401366 87.42304077148438 151.74816497802735 87.02117919921875 152.5903778076172 C86.19962642249118 154.30299731741616 85.36885838176238 156.01122433192796 84.529296875 157.715087890625 C83.24908796647964 160.3143517413403 81.99738745072986 162.9258658732438 80.75 165.541015625 C79.94432784654407 167.21171945417458 79.13708939979705 168.8816690597821 78.328125 170.55078125 C77.95504211425782 171.3248078918457 77.58195922851561 172.09883453369142 77.19757080078125 172.8963165283203 C72.23698078088375 182.92758853491037 72.23698078088375 182.92758853491037 67.67555141448975 185.11434364318848 C64.9868986067163 186.00433680032532 62.967508386325775 186.25591846818716 60.14918518066406 186.26742553710938 C58.72568252563477 186.28022048950194 58.72568252563477 186.28022048950194 57.27342224121094 186.29327392578125 C56.24419143676758 186.29236755371093 55.21496063232422 186.2914611816406 54.154541015625 186.29052734375 C52.514672241210945 186.30060317993164 52.514672241210945 186.30060317993164 50.8416748046875 186.31088256835938 C47.229039021492284 186.3298751991444 43.61658884476434 186.33378723578446 40.00390625 186.3359375 C37.491937493759295 186.34236379687405 34.97996949329968 186.34909203055045 32.46800231933594 186.35610961914063 C27.203183964384635 186.3680850180674 21.93841268703929 186.37187577529045 16.673583984375 186.37060546875 C10.596020447195741 186.36940373302036 4.518811844742444 186.3905159646824 -1.5586618781089783 186.422092795372 C-7.415420067210512 186.45143375449754 -13.272038096877246 186.45858062837203 -19.128862380981445 186.4573860168457 C-21.61635857557851 186.4597467209178 -24.103857378832597 186.46859651719447 -26.591306686401367 186.48405075073242 C-30.06955344619274 186.5036397293422 -33.54688508210735 186.49790003457733 -37.025146484375 186.48583984375 C-38.052353057861325 186.49707885742188 -39.07955963134766 186.50831787109374 -40.13789367675781 186.5198974609375 C-46.05705632858425 186.4677283150108 -49.49986347848291 185.96627784640057 -54 182 C-55.891607793281544 178.2167844134369 -55.60828102297308 174.11197971529805 -55 170 C-53.51390273240721 166.85726971279558 -51.351618438608426 164.53775039996546 -49 162 C-48.187890625 161.0834765625 -47.37578125 160.166953125 -46.5390625 159.22265625 C-41.06501405721485 153.09419975282094 -35.315002330115036 147.28051566535987 -29.47265625 141.50390625 C-27.44829374554196 139.45395938529606 -25.54788676315925 137.3835956527519 -23.6875 135.1875 C-20.331116708365606 131.24598451224531 -16.676815602229503 127.63862484032632 -13 124 C-7.614613241213277 118.68798762529087 -7.614613241213277 118.68798762529087 -2.5625 113.0625 C1.500744652128688 108.25103638379646 6.058260029445208 103.91823344857592 10.52880859375 99.49072265625 C14.209766896502757 95.831691134154 17.72158662736497 92.12268808128367 21.06640625 88.15234375 C24.50611985991469 84.32349082260001 28.22072106356802 80.76077610074829 31.878173828125 77.141357421875 C35.50970447019573 73.53314630767308 38.96989106016433 69.85874443642072 42.2734375 65.9453125 C45.33248306018905 62.498695556619566 48.66403057002486 59.318785878797485 51.9609375 56.1015625 C54.04126091015159 54.169039538675044 54.04126091015159 54.169039538675044 55 52 C47.427977796961954 52.03814859660415 39.8563735432421 52.09764273581161 32.28475093841553 52.183902740478516 C28.768347714859914 52.223303143362564 25.252192094793628 52.25552749508005 21.735595703125 52.27099609375 C17.68660845018482 52.289128269955626 13.638544944416552 52.33911133415678 9.58984375 52.390625 C8.335419769287114 52.39185363769531 7.080995788574221 52.393082275390626 5.7885589599609375 52.39434814453125 C-1.0011982072914662 52.50774290085041 -5.519310522553134 52.85155299505669 -11 57 C-13.06540217130484 59.1825431389954 -13.06540217130484 59.1825431389954 -14.625 61.5625 C-17.701067534438373 65.70021916136842 -19.845683945747012 68.50553964554953 -25.16796875 69.33984375 C-29.18837382878713 69.60874523161546 -31.289350368948984 69.53732045274589 -34.5625 67.0625 C-38.003192686340626 59.73232862475258 -35.56275158119037 52.27123693775124 -33 45 C-32.68603271484375 44.08935791015625 -32.372065429687495 43.1787158203125 -32.048583984375 42.240478515625 C-15.862050181948874 -3.5249000404330815 -15.862050181948874 -3.5249000404330815 0 0 Z " transform="translate(56,7)" style="fill: #0FAE81;"/><path d="M0 0 C5.211172109524796 3.0175575665010115 8.453908819971389 7.67916010027588 10.83203125 13.1171875 C19.325461258269343 46.70307967881857 0.6267362295861858 88.24095712855322 -15.81640625 116.421875 C-34.39992691507058 147.27588900541977 -60.514060397403625 172.79433930127252 -95.609375 183.1796875 C-108.85490514938022 186.42439790572067 -123.66762878491403 185.7243052415049 -135.75 179.1796875 C-140.5958871357895 175.91940314025928 -143.69921720255726 172.15149998607268 -145.3125 166.5 C-146.20062320856164 161.1881773811743 -145.91134076741292 156.8660640161197 -143.25 152.125 C-140.5771184957157 148.45721260245432 -137.73039749539075 145.780549998664 -133.3125 144.5 C-127.80349387652177 143.78916050019635 -123.07464692453647 143.66879862050166 -118 146.0625 C-115.8539718469556 148.0088976271798 -113.83445577845117 149.99229798822353 -111.8125 152.0625 C-107.44429069202948 156.49732687911606 -103.80340155618342 158.631813211567 -97.5 158.875 C-92.31488427188071 158.68954131523864 -88.06544383241032 157.5236840787261 -83.3125 155.5 C-82.4088671875 155.1326171875 -81.50523437499999 154.765234375 -80.57421875 154.38671875 C-67.56176421158102 148.54404048705427 -57.36117529591144 138.3201090839999 -48.3125 127.5 C-49.3063671875 127.8235546875 -50.300234375 128.147109375 -51.32421875 128.48046875 C-60.632076528322955 131.12615539168968 -72.52582130486516 130.68789542124233 -81.3125 126.5 C-91.7614273528979 120.4674358268341 -97.12328668652924 110.90560965814453 -100.3125 99.5 C-101.61293418911785 93.33798250661488 -102.2371167776171 87.06471067839084 -102.9375 80.8125 C-103.14474056234985 79.08306176067049 -103.35357849887868 77.35381423323918 -103.56396484375 75.624755859375 C-104.49460831185493 67.90702960967695 -105.35282453185098 60.181747377247746 -106.1875 52.453125 C-106.3168896484375 51.273229980468756 -106.44627929687499 50.0933349609375 -106.57958984375 48.877685546875 C-106.8101239838985 46.74233555432605 -107.03003773439048 44.60579870848349 -107.23681640625 42.468017578125 C-108.06990364439386 34.55638053542927 -109.2680885692289 27.702512179110414 -115.4375 22.125 C-120.19444339337068 17.75140003027093 -120.19444339337068 17.75140003027093 -120.625 13.1875 C-120.25849134586062 8.862697881155327 -119.4326517989598 7.451494944961965 -116.3125 4.5 C-112.64763900085754 2.7098897299797073 -109.66553045800504 2.2375072497670914 -105.607666015625 2.193603515625 C-104.48622695922853 2.1776161193847656 -103.36478790283203 2.1616287231445313 -102.20936584472656 2.1451568603515625 C-101.0071891784668 2.139794158935544 -99.80501251220704 2.1344314575195256 -98.56640625 2.12890625 C-97.32253646850586 2.119877777099603 -96.07866668701172 2.1108493041992205 -94.79710388183594 2.1015472412109375 C-92.16871546670268 2.0870514862883596 -89.54029102206181 2.078159692014154 -86.911865234375 2.074462890625 C-84.22201328734326 2.0701467491417276 -81.53311439264854 2.049237014758617 -78.843505859375 2.012939453125 C-74.95917582378533 1.964168236288117 -71.07601062613756 1.9486815845312861 -67.19140625 1.94140625 C-65.99125381469725 1.921873931884761 -64.79110137939455 1.9023416137695364 -63.55458068847656 1.8822174072265625 C-54.25753502312551 1.9324622574666819 -54.25753502312551 1.9324622574666819 -50.562255859375 4.804443359375 C-48.18943091626301 7.647455860395027 -47.324497635645685 9.492464534685496 -47.57421875 13.23828125 C-49.16557658315719 18.113393342053016 -52.98407729214597 21.71418305110896 -56.3125 25.5 C-57.922953955284754 28.720907910569508 -57.50340515447752 32.21204449785901 -57.5 35.75 C-57.49879150390626 37.08103759765625 -57.49879150390626 37.08103759765625 -57.49755859375 38.43896484375 C-57.414642794843644 48.344964113090185 -56.93296301909524 58.232836832269584 -56.4375 68.125 C-56.39829437255861 68.94987915039064 -56.35908874511719 69.77475830078123 -56.318695068359375 70.6246337890625 C-56.355517470066644 87.47883778430332 -56.355517470066644 87.47883778430332 -50.3125 102.5 C-46.834212763182876 104.23914361840855 -43.115660116445156 103.9504588970409 -39.3125 103.5 C-30.236170789275548 99.05081901435076 -25.707874522985463 90.629784828472 -22.3125 81.5 C-15.252795724296789 60.758994284728715 -15.252795724296789 60.758994284728715 -17.44140625 39.55078125 C-18.934390630889624 37.06767145724102 -20.548681214628658 34.79734410645432 -22.3125 32.5 C-23.425609128561604 30.839292357617282 -24.530131447135147 29.172789483916972 -25.625 27.5 C-26.361699218750005 26.417187499999997 -26.361699218750005 26.417187499999997 -27.11328125 25.3125 C-29.886150523373146 21.12158357379431 -29.86289898795576 17.422139520861407 -29.3125 12.5 C-27.660073133119 6.905639161523354 -24.821986538885483 3.5808430489336587 -19.99609375 0.41015625 C-14.077854067300677 -2.789263346447676 -6.1048413285674314 -2.6752876092370883 0 0 Z " transform="translate(272.3125,62.5)" style="fill: #0FAE81;"/><path d="M0 0 C4.959080245357427 4.608931722286201 9.341929291180236 9.239670327108882 10.30078125 16.17578125 C10.330358422047425 21.56868561998337 9.714366937915884 26.25790440095328 7 31 C3.0192515291839754 34.88122975904565 -0.26053058834759213 36.147711750093436 -5.75 36.25 C-10.650800942648516 36.18570377772036 -13.75360675254251 35.462908083525306 -18 33 C-22.059319503111965 28.49231384565678 -24.457208472203888 23.362876555206114 -27.12109375 17.9609375 C-29.155921954723453 14.754285152431649 -30.563387080601615 13.535055848077462 -34 12 C-38.289316088377404 11.098268776875202 -41.23984367196965 11.51479383317212 -44.9375 13.875 C-47.578766828475295 16.59630521721695 -47.95610478678873 17.429362228252984 -48.25 21.25 C-47.81679447302736 27.748082904589964 -44.89294109983325 31.65323412405013 -40.33984375 36.0234375 C-36.858979596460244 38.963866985293976 -33.1405034788487 41.55019062616951 -29.41259765625 44.16259765625 C-15.653440804997786 53.82141613111311 -5.423651313611003 62.72904605916702 0 79 C1.1288186367670505 89.15936773090357 -1.0234074048190678 98.11005797432188 -6.76171875 106.609375 C-11.343956364639553 112.14895637591309 -16.656411868079886 115.71883372486892 -23 119 C-23.973242187499977 119.5143359375 -24.946484374999955 120.02867187499999 -25.94921875 120.55859375 C-35.706154187603715 125.16846465457843 -46.02663201137261 125.30350164014487 -56.625 125.375 C-58.32209106445316 125.39566528320313 -58.32209106445316 125.39566528320313 -60.053466796875 125.416748046875 C-72.37137470209416 125.34963267507032 -82.61571994523706 122.65448326294145 -93 116 C-93.67031250000002 115.5707421875 -94.34062500000005 115.141484375 -95.03125 114.69921875 C-101.13356197875135 110.16263155527042 -105.09734235000815 102.86103341020171 -106.4765625 95.43359375 C-106.65536899828203 90.63020100069531 -105.74576609808298 87.02712361052176 -103 83 C-98.77847898566267 78.84602332189212 -95.6830599240302 76.84726327744312 -89.75 76.75 C-85.02337944112708 76.83011221286225 -81.85716140784928 77.0398528730459 -78 80 C-74.29986523937907 84.53974317595976 -71.64323103152879 89.64323892441945 -68.9375 94.8125 C-66.01011588649021 100.41179294704727 -66.01011588649021 100.41179294704727 -61 104 C-55.69775248996211 104.81819855676832 -51.53301417703847 104.87171394380616 -46.8125 102.1875 C-44.11484616328835 97.44335014923115 -44.206864442261576 93.32863889276695 -45 88 C-48.59717328355043 78.51654316154901 -57.957712719148276 72.62960109659622 -66 67 C-75.59019330231138 60.27028968510501 -83.74149278057291 53.730197163966054 -89 43 C-89.37125000000003 42.2536328125 -89.74249999999995 41.507265625 -90.125 40.73828125 C-92.84359994025806 32.23051982981755 -92.27046883820299 21.397492120415507 -88.5 13.375 C-82.11329004493814 2.6565631541207324 -72.95502561591627 -4.044754417257451 -61.009765625 -7.5908203125 C-41.340533810874604 -12.550804998511374 -16.946096324402788 -12.469250780030613 0 0 Z " transform="translate(852,71)" style="fill: #0FAE81;"/><path d="M0 0 C2.875 1.7499999999999893 2.875 1.7499999999999893 5 5 C5.83921706812589 11.030250479213613 5.368914164100261 16.973702722091133 3.599365234375 22.790283203125 C2.885346487586503 25.42270017957408 2.4049001470506255 28.06054328662541 1.9296875 30.74609375 C1.7542138671874454 31.731501464843745 1.5787402343750045 32.7169091796875 1.39794921875 33.732177734375 C1.2666259765625227 34.48055908203125 1.1353027343750455 35.2289404296875 1 36 C1.8575488281250045 35.989526367187494 2.715097656250009 35.979052734375 3.5986328125 35.96826171875 C6.789215132916297 35.93411704206173 9.979704117258052 35.90907041231155 13.17041015625 35.89013671875 C14.549673151969955 35.88009747177482 15.928914964064575 35.86646322820987 17.30810546875 35.84912109375 C19.29385139601891 35.82478246306249 21.279754499906176 35.81456745273678 23.265625 35.8046875 C24.459619140625023 35.794213867187494 25.653613281250045 35.783740234375 26.8837890625 35.77294921875 C29.911011022287312 35.993516158784644 31.526461395567026 36.29403798828932 34 38 C36.69967727001597 42.04951590502394 36.53437658784321 45.249058148706126 36 50 C34.70266063483177 53.209207903310826 33.9024220348216 54.536163795114746 30.827392578125 56.11669921875 C27.40789718393671 57.18497780748788 24.53094106373021 57.225795243095575 20.94921875 57.1953125 C20.290412139892624 57.19248260498047 19.631605529785134 57.18965270996094 18.952835083007813 57.186737060546875 C16.864199383073355 57.17560924225168 14.7760044393508 57.15051947787563 12.6875 57.125 C11.264980184647925 57.11496058866797 9.842453596844166 57.10583642091342 8.419921875 57.09765625 C4.946473189976814 57.07569447380877 1.4732796704408884 57.04121646345571 -2 57 C-2.1054614257813 57.860529785156245 -2.2109228515624864 58.72105957031249 -2.319580078125 59.607666015625 C-2.723297997798113 62.87924883185818 -3.1321440063286445 66.15011373415615 -3.544189453125 69.420654296875 C-3.7196681147447634 70.8214498368111 -3.893249051724979 72.22248474706072 -4.064697265625 73.623779296875 C-5.137062382406498 82.3756623467372 -6.488673416911183 90.98548351191779 -8.31689453125 99.613037109375 C-9.47823205159466 105.37116270613745 -10.224407624691366 111.17985225801482 -11 117 C-11.280371093749977 118.91039062499999 -11.280371093749977 118.91039062499999 -11.56640625 120.859375 C-14.020819977534984 132.80680348553526 -14.020819977534984 132.80680348553526 -11.69921875 144.234375 C-9.993546498473165 146.36089485847396 -9.993546498473165 146.36089485847396 -6.5 146.5625 C-2.9355690976616415 146.39363572677257 -2.9355690976616415 146.39363572677257 -1.37109375 143.9453125 C0.2512300226687785 140.46032069204486 0.8707089824367813 137.07627708680104 1.4375 133.3125 C2.7384895668359377 125.70110309495985 4.228054949273883 118.63817787907803 9 112.375 C13.898763035001252 110.12973360895774 18.72045707220468 110.15099242107078 24 111 C27.22454165717363 112.64257667122945 29.35896374980632 114.7179274996127 31 118 C32.24982067210351 129.64118683159305 29.6551175973417 140.54187339048386 22.625 150 C21.449400694058227 151.3622824575291 20.242443375184735 152.69839265456832 19 154 C18.466328125000018 154.56203125 17.932656250000036 155.1240625 17.3828125 155.703125 C5.599753833170666 166.86602268436465 -9.626595192595687 167.64429900015236 -24.9140625 167.375 C-34.74458430836364 166.95655273542994 -42.210858071191296 163.75717545873363 -49.3828125 156.8828125 C-56.38661648333323 148.72862525370388 -57.378225784931374 138.45866206276236 -57.3359375 128.12109375 C-57.33298675537105 127.07932479858397 -57.33003601074222 126.03755584716797 -57.326995849609375 124.96421813964844 C-57.15414009128415 112.85421016441586 -55.43750647872139 101.0166249923181 -53.625 89.0625 C-53.303212823739614 86.83940566461322 -52.982895791061196 84.61609802447144 -52.6640625 82.392578125 C-51.37327955405988 73.51677729185803 -50.04369400888288 64.73799438992245 -48 56 C-48.74765624999998 56.058007812499994 -49.495312499999955 56.116015625 -50.265625 56.17578125 C-58.27098986629676 56.542519169267536 -58.27098986629676 56.542519169267536 -61.6875 54 C-63.31928844044853 50.270197850403406 -64.02931327854094 46.99615743433549 -63 43 C-59.79488734240567 37.18961420452871 -54.85603226245655 36.295094436525204 -48.875 34.5625 C-33.91789481077285 29.873712458733465 -25.288178550966222 23.891836080872267 -16.4375 10.8125 C-7.744308250305949 -1.8518997989861887 -7.744308250305949 -1.8518997989861887 0 0 Z " transform="translate(938,29)" style="fill: #0FAE81;"/><path d="M0 0 C5.706620145175862 2.0851112068911846 8.588440886477201 5.348452493934971 11.4140625 10.65625 C20.43572698026594 31.842610456882497 19.37498881085378 59.68709743996516 11 81 C8.523694453534745 86.06590611793226 5.77926246713298 89.8557483768862 1 93 C-4.14898472254788 94.7163282408493 -8.298004707785708 94.76756650433194 -13.1875 92.5625 C-21.619017869151776 84.8804503858839 -24.102648720680236 72.98627399604902 -25 62 C-26.68810460659995 19.388488385847168 -26.68810460659995 19.388488385847168 -14 4 C-9.51400648286733 0.012450206993207757 -5.79771664363102 -0.9508255295555017 0 0 Z " transform="translate(675,82)" style="fill: #DBDDC9;"/><path d="M0 0 C4.308768765602338 1.9948003544455446 7.155584464992955 4.5560453353010075 9.3046875 8.86328125 C14.091856083130551 23.574411671193417 6.530224721844945 44.90129894615109 -0.02490234375 58.193359375 C-3.0850208232504315 63.8630831477349 -6.773800318207975 68.45529001671571 -12.0625 72.125 C-15.695593299569396 73.20719800412706 -18.227771792602084 73.53888974391398 -22 73 C-26.217187057134993 70.56700746703751 -28.189764201584637 68.37208657608636 -29.875 63.8125 C-33.877421251453825 47.65901542826424 -30.858822496908886 27.583913223771845 -23 13 C-17.128929598969137 3.9565419250624956 -11.31125825878297 -1.786957737951056 0 0 Z " transform="translate(373,85)" style="fill: #DBDDC9;"/></svg>
