<svg width="32" height="32" viewBox="0 0 32 32" xmlns="http://www.w3.org/2000/svg">
  <style>
    @media (prefers-color-scheme: dark) {
      .path { fill: #ffffff }
    }
  </style>
  <path class="path" fill="#1c1c1c" fill-rule="evenodd" clip-rule="evenodd" d="M32 3.29052e-06L27.0767 2.78426e-06L27.0767 27.2001L13.9477 27.2001L13.9477 8.79933L9.02445 8.79933L9.02445 27.2001L9.02445 31.9987L9.02445 32L31.9998 32L31.9998 31.9991L32 31.9991L32 3.29052e-06ZM18.0505 4.79992L4.92328 4.79992L4.92328 31.9989L-2.37832e-06 31.9989L-1.65604e-08 0.222811L0.000283045 0.222811L0.000283061 6.47039e-05L22.9756 6.70665e-05L22.9756 4.79993L22.9738 4.79993L22.9738 23.2L18.0505 23.2L18.0505 4.79992Z" />
</svg>
