<?xml version="1.0" encoding="UTF-8" standalone="no"?> <!-- Created with Vectornator for iOS (http://vectornator.io/) --><!DOCTYPE svg PUBLIC "-//W3C//DTD SVG 1.1//EN" "http://www.w3.org/Graphics/SVG/1.1/DTD/svg11.dtd">
<svg height="100%" style="fill-rule:nonzero;clip-rule:evenodd;stroke-linecap:round;stroke-linejoin:round;" xmlns:xlink="http://www.w3.org/1999/xlink" xmlns="http://www.w3.org/2000/svg" xml:space="preserve" width="100%" xmlns:vectornator="http://vectornator.io" version="1.1" viewBox="0 0 1412 1645">
<metadata>
<vectornator:setting key="DimensionsVisible" value="1"/>
<vectornator:setting key="PencilOnly" value="0"/>
<vectornator:setting key="SnapToPoints" value="0"/>
<vectornator:setting key="OutlineMode" value="0"/>
<vectornator:setting key="CMYKEnabledKey" value="0"/>
<vectornator:setting key="RulersVisible" value="1"/>
<vectornator:setting key="SnapToEdges" value="0"/>
<vectornator:setting key="GuidesVisible" value="1"/>
<vectornator:setting key="DisplayWhiteBackground" value="0"/>
<vectornator:setting key="doHistoryDisabled" value="0"/>
<vectornator:setting key="SnapToGuides" value="1"/>
<vectornator:setting key="TimeLapseWatermarkDisabled" value="0"/>
<vectornator:setting key="Units" value="Points"/>
<vectornator:setting key="DynamicGuides" value="0"/>
<vectornator:setting key="IsolateActiveLayer" value="0"/>
<vectornator:setting key="SnapToGrid" value="0"/>
</metadata>
<defs/>
<g id="Layer 1" vectornator:layerName="Layer 1">

<path stroke="#1b2320" stroke-width="1" d="M1085+130C1091.48+130+1097.71+136.902+1104+139C1104+140+1104+140+1104+141C1107.05+141+1105.37+140.789+1109+142C1109+143+1109+143+1109+144C1114.02+144+1142+162.849+1142+167C1161.58+167+1216.07+247+1224+247C1224+249.715+1227.25+255+1230+255C1230.99+257.959+1231.55+262+1235+262C1235+263.5+1235+263.5+1235+265C1236+265+1236+265+1237+265C1237+266.5+1237+266.5+1237+268C1238+268+1238+268+1239+268C1239.67+270+1240.33+272+1241+274C1242+274+1242+274+1243+274C1243+275.5+1243+275.5+1243+277C1244+277+1244+277+1245+277C1262.74+330.21+1293.96+372.266+1303+431C1319.21+536.361+1309.27+643.933+1284+745C1269.97+801.111+1222.05+906.942+1186+952C1147.36+1000.31+1134.97+1070.08+1113+1125C1098.57+1161.07+1099.77+1215.3+1099+1253C1097.31+1335.72+1101.18+1416.85+1109+1499C1113.06+1541.64+1125+1586.3+1125+1629C1028.5+1580.75+937.169+1499.17+865+1427C841.112+1403.11+828.86+1361.86+808+1341C784.542+1352.73+760.468+1382.53+742+1401C684.366+1458.63+623.648+1522.08+560+1573C527.479+1507.96+519.043+1430.09+486+1364C481.55+1355.1+454.693+1306+449+1306C443.41+1306+429.189+1334.76+425+1340C401.063+1369.92+365.46+1399.36+336+1419C284.345+1453.44+220.17+1476.18+158+1490C126.842+1496.92+90.6333+1493.12+61+1503C215.609+1348.39+262.109+1112.83+254+902C245.587+683.254+195.93+467.784+314+271C431.377+75.3711+647.119+40.9161+858+61C917.706+66.6863+978.427+82.7709+1034+105C1040.38+107.551+1085+122.817+1085+130Z" fill="#1b2320" stroke-linecap="round" opacity="1" stroke-linejoin="round"/>
<path stroke="#4eaa83" stroke-width="1" d="M1080+1559C1063.45+1542.45+1039.65+1530.99+1021+1517C969.429+1478.32+924.384+1442.64+891+1387C866.541+1346.23+853.887+1297.1+841+1252C837.082+1238.29+834.465+1207.23+820+1200C813.399+1219.8+813.98+1241.05+806+1261C777.164+1333.09+704.873+1387.04+651+1438C640.824+1447.63+584.986+1506+577+1506C577+1483.12+563.274+1456.96+557+1435C542.395+1383.88+490.023+1218.34+438+1201C450.367+1238.1+422.715+1277+402+1306C334.971+1399.84+248.229+1422.92+146+1457C276.11+1283.52+302.859+1038.45+284+831C271.004+688.046+248.831+540.506+295+402C305.656+370.032+315.368+329.51+336+302C382.65+239.8+440.326+151.668+523+131C542.623+126.094+560.875+114.031+581+109C625.891+97.7773+672.622+90.1741+719+89C960.272+82.8918+1202.79+170.166+1265+419C1277.54+469.168+1275+526.879+1275+577C1275+782.002+1132.83+930.591+1079+1119C1037.93+1262.75+1080+1413.85+1080+1559Z" fill="#4eaa83" stroke-linecap="round" opacity="1" stroke-linejoin="round"/>
<path stroke="#010101" stroke-width="1" d="M758+165C925.533+159.881+1056.72+233.202+1140+372C1164.14+412.239+1177.39+467.985+1179+514C1186.35+723.507+1015.23+897.907+806+905C550.625+913.657+333.566+715.451+393+448C402.992+403.036+426.593+360.543+454+324C483.941+284.079+521.194+249.684+564+224C623.195+188.483+689.104+167.105+758+165Z" fill="#010101" stroke-linecap="round" opacity="1" stroke-linejoin="round"/>
<path stroke="#fcfcfc" stroke-width="1" d="M741+206C855.333+196.054+933.102+207.755+927+342C926.279+357.856+889.532+391.879+880+403C835.284+455.168+785.663+502.795+734+548C698.546+579.022+662.186+609.078+625+638C619.187+642.521+606.33+656.953+599+658C526.427+668.368+474.805+657.675+439+598C434.475+590.458+422.506+577.368+422+568C419.082+514.013+430.401+467.997+450+419C500.041+293.897+614.449+217.009+741+206Z" fill="#fcfcfc" stroke-linecap="round" opacity="1" stroke-linejoin="round"/>
<path stroke="#f8f8f8" stroke-width="1" d="M1039+380C1136.45+365.862+1149.94+520.302+1136+590C1109.34+723.322+984.921+832.77+856+865C732.506+895.874+680+844.697+680+728C680+716.75+681.785+700.538+686+690C703.091+647.272+752.908+600.958+783+568C851.721+492.734+934.449+395.168+1039+380Z" fill="#f8f8f8" stroke-linecap="round" opacity="1" stroke-linejoin="round"/>
<path stroke="#fafafa" stroke-width="1" d="M603+749C675.302+735.703+685.342+847.013+623+852C552.926+857.606+536.722+761.189+603+749Z" fill="#fafafa" stroke-linecap="round" opacity="1" stroke-linejoin="round"/>
<path stroke="#fcfcfc" stroke-width="1" d="M506+676C577.262+664.926+591.09+765.291+524+772C457.91+778.609+440.397+686.195+506+676Z" fill="#fcfcfc" stroke-linecap="round" opacity="1" stroke-linejoin="round"/>
</g>
</svg>
